<svg xmlns="http://www.w3.org/2000/svg" width="27.685" height="49.482" viewBox="0 0 27.685 49.482">
  <path id="Caminho_2059" data-name="Caminho 2059" d="M1108.062,799.482V763.842a13.843,13.843,0,0,0-27.662-.8h7.094a6.773,6.773,0,0,1,13.5.8c0,6.291-10.137,8.349-17.174,9.777-1.278.259-2.448.5-3.441.739v25.123ZM1087.775,783.2h12.888a.8.8,0,1,1,0,1.6h-12.888a.8.8,0,0,1,0-1.6m0,7.03h12.888a.8.8,0,1,1,0,1.6h-12.888a.8.8,0,0,1,0-1.6" transform="translate(-1080.377 -750)" fill="#b56b55" fill-rule="evenodd"/>
</svg>
