<svg xmlns="http://www.w3.org/2000/svg" xmlns:xlink="http://www.w3.org/1999/xlink" width="1985.535" height="110.897" viewBox="0 0 1985.535 110.897">
  <defs>
    <filter id="Caminho_749" x="0" y="0" width="1950.535" height="110.897" filterUnits="userSpaceOnUse">
      <feOffset dy="3" input="SourceAlpha"/>
      <feGaussianBlur stdDeviation="5" result="blur"/>
      <feFlood flood-opacity="0.275"/>
      <feComposite operator="in" in2="blur"/>
      <feComposite in="SourceGraphic"/>
    </filter>
    <filter id="Caminho_752" x="1281" y="0" width="704.535" height="110.897" filterUnits="userSpaceOnUse">
      <feOffset dy="3" input="SourceAlpha"/>
      <feGaussianBlur stdDeviation="5" result="blur-2"/>
      <feFlood flood-opacity="0.275"/>
      <feComposite operator="in" in2="blur-2"/>
      <feComposite in="SourceGraphic"/>
    </filter>
  </defs>
  <g id="Grupo_1863" data-name="Grupo 1863" transform="translate(240.191 -12.951)">
    <g transform="matrix(1, 0, 0, 1, -240.19, 12.95)" filter="url(#Caminho_749)">
      <path id="Caminho_749-2" data-name="Caminho 749" d="M-11.191.485,1909.344,0V80.9L-11.191,80.888Z" transform="translate(26.19 12)" fill="#485a4b"/>
    </g>
    <g transform="matrix(1, 0, 0, 1, -240.19, 12.95)" filter="url(#Caminho_752)">
      <path id="Caminho_752-2" data-name="Caminho 752" d="M-11.362.112,663.173,0V80.9l-674.284,0Z" transform="translate(1307.36 12)" fill="#3a9713"/>
    </g>
    <text id="ATENDIMENTO" transform="translate(1201 61)" fill="#fff" font-size="13" font-family="SegoeUI, Segoe UI" letter-spacing="-0.057em"><tspan x="-39.856" y="0">ATENDIMENTO</tspan></text>
    <text id="POR_WHATSAPP" data-name="POR WHATSAPP" transform="translate(1218 81)" fill="#fff" font-size="17" font-family="SegoeUI-Bold, Segoe UI" font-weight="700" letter-spacing="-0.057em"><tspan x="-60.832" y="0">POR WHATSAPP</tspan></text>
    <g id="Grupo_1772" data-name="Grupo 1772" transform="translate(-2186 524.749)">
      <text id="condominioverdeserrano" transform="translate(2987 -454)" fill="#fff" font-size="17" font-family="SegoeUI, Segoe UI" letter-spacing="0.02em"><tspan x="0" y="0">condominioverdeserrano</tspan></text>
      <g id="Grupo_13" data-name="Grupo 13" transform="translate(2768.7 -2543.059)">
        <path id="Caminho_203" data-name="Caminho 203" d="M178,2072.2v3.7h-2.2a2.172,2.172,0,0,0-1.6.5,2.076,2.076,0,0,0-.4,1.5v2.6h4.1l-.5,4.1h-3.5v10.5h-4.2v-10.5H166v-4.1h3.5v-3a5.721,5.721,0,0,1,1.4-4,4.839,4.839,0,0,1,3.8-1.4A16.074,16.074,0,0,1,178,2072.2Z" fill="#fff"/>
      </g>
      <g id="Grupo_14" data-name="Grupo 14" transform="translate(2754.7 -1334.059)">
        <path id="Caminho_455" data-name="Caminho 455" d="M217.6,874.8a3.418,3.418,0,1,0-1,2.5A3.317,3.317,0,0,0,217.6,874.8Zm1.9,0a5.284,5.284,0,0,1-1.6,3.9,5.132,5.132,0,0,1-3.9,1.6,5.284,5.284,0,0,1-3.9-1.6,5.5,5.5,0,0,1,3.9-9.4,5.463,5.463,0,0,1,5.5,5.5Zm1.5-5.6a.975.975,0,0,1-.4.9,1.489,1.489,0,0,1-.9.4.975.975,0,0,1-.9-.4,1.268,1.268,0,0,1-.4-.9.975.975,0,0,1,.4-.9,1.267,1.267,0,0,1,.9-.4.975.975,0,0,1,.9.4A1.489,1.489,0,0,1,221,869.2Zm-7-3.1h-3.9c-.5,0-1,.1-1.4.1-.4.1-.7.2-1,.3a3.6,3.6,0,0,0-1.2.8,5.024,5.024,0,0,0-.8,1.2c-.1.3-.2.6-.3,1a6.15,6.15,0,0,0-.1,1.4v7.8c0,.5.1,1,.1,1.4.1.4.2.7.3,1a3.6,3.6,0,0,0,.8,1.2,5.026,5.026,0,0,0,1.2.8c.3.1.6.2,1,.3a6.151,6.151,0,0,0,1.4.1h7.8c.5,0,1-.1,1.4-.1.4-.1.7-.2,1-.3a3.6,3.6,0,0,0,1.2-.8,5.024,5.024,0,0,0,.8-1.2c.1-.3.2-.6.3-1a6.15,6.15,0,0,0,.1-1.4v-7.8c0-.5-.1-1-.1-1.4-.1-.4-.2-.7-.3-1a3.6,3.6,0,0,0-.8-1.2,5.026,5.026,0,0,0-1.2-.8c-.3-.1-.6-.2-1-.3a6.151,6.151,0,0,0-1.4-.1H214Zm10.7,8.7c0,2.1,0,3.6-.1,4.4a7.04,7.04,0,0,1-1.7,4.5,6.356,6.356,0,0,1-4.5,1.7c-.8,0-2.3.1-4.4.1s-3.6,0-4.4-.1a7.04,7.04,0,0,1-4.5-1.7,6.355,6.355,0,0,1-1.7-4.5c0-.8-.1-2.3-.1-4.4s0-3.6.1-4.4a7.04,7.04,0,0,1,1.7-4.5,6.356,6.356,0,0,1,4.5-1.7c.8,0,2.3-.1,4.4-.1s3.6,0,4.4.1a7.04,7.04,0,0,1,4.5,1.7,6.355,6.355,0,0,1,1.7,4.5C224.7,871.3,224.7,872.7,224.7,874.8Z" fill="#fff"/>
      </g>
    </g>
    <text id="Lorem_ipsum_dolor_sit_amet_consectetur_adipiscing_elit_ES" data-name="Lorem ipsum dolor sit amet, consectetur adipiscing elit, ES" transform="translate(426.809 45)" fill="#fff" font-size="17" font-family="SegoeUI, Segoe UI" letter-spacing="0.02em"><tspan x="0" y="18">Lorem ipsum dolor sit amet, </tspan><tspan x="0" y="36.74">consectetur adipiscing elit, ES</tspan></text>
    <path id="brand_whatsapp" data-name="brand whatsapp" d="M29.747,37.084A17.343,17.343,0,0,0,2.46,58.006L0,66.987l9.192-2.413a17.285,17.285,0,0,0,8.286,2.109h.008a17.227,17.227,0,0,0,12.261-29.6ZM17.486,63.762a14.385,14.385,0,0,1-7.341-2.007l-.523-.312L4.17,62.872l1.453-5.318-.344-.547a14.438,14.438,0,1,1,26.779-7.661A14.571,14.571,0,0,1,17.486,63.762Zm7.9-10.793c-.43-.219-2.562-1.265-2.96-1.406s-.687-.219-.976.219-1.117,1.406-1.375,1.7-.508.328-.937.109c-2.546-1.273-4.217-2.273-5.9-5.154-.445-.765.445-.711,1.273-2.366a.8.8,0,0,0-.039-.758c-.109-.219-.976-2.351-1.335-3.218-.351-.843-.711-.726-.976-.742-.25-.016-.539-.016-.828-.016a1.6,1.6,0,0,0-1.156.539A4.868,4.868,0,0,0,8.669,45.5a8.487,8.487,0,0,0,1.765,4.483c.219.289,3.054,4.662,7.4,6.545,2.749,1.187,3.827,1.289,5.2,1.086a4.437,4.437,0,0,0,2.921-2.062,3.623,3.623,0,0,0,.25-2.062C26.108,53.289,25.819,53.18,25.389,52.969Z" transform="translate(1116.286 17)" fill="#fff3f3"/>
    <g id="Grupo_1877" data-name="Grupo 1877" transform="translate(-691.191 24.232)">
      <text id="CONDOMÍNIO" transform="translate(894 33)" fill="#fafafa" font-size="12" font-family="Impact"><tspan x="0" y="0">CONDOMÍNIO</tspan></text>
      <text id="VERDE_SERRANO" data-name="VERDE SERRANO" transform="translate(900 53)" fill="#fafafa" font-size="25" font-family="SegoeUI, Segoe UI"><tspan x="0" y="0">VERDE SERRANO</tspan></text>
    </g>
  </g>
</svg>
