<svg id="Grupo_1817" data-name="Grupo 1817" xmlns="http://www.w3.org/2000/svg" xmlns:xlink="http://www.w3.org/1999/xlink" width="59.711" height="60.068" viewBox="0 0 59.711 60.068">
  <defs>
    <clipPath id="clip-path">
      <rect id="Retângulo_1324" data-name="Retângulo 1324" width="59.711" height="60.068" fill="#314839"/>
    </clipPath>
  </defs>
  <g id="Grupo_1816" data-name="Grupo 1816" clip-path="url(#clip-path)">
    <path id="Caminho_2039" data-name="Caminho 2039" d="M29.856,60.068A30.035,30.035,0,1,1,59.711,30.034,29.979,29.979,0,0,1,29.856,60.068m0-59.135a29.1,29.1,0,1,0,28.922,29.1A29.045,29.045,0,0,0,29.856.933m16.77,47.443H13.878l.523-.737c4.32-6.083,9.1-9.349,14.216-9.717.265-3.032.345-6.293.348-9.048-.021.061-.043.121-.067.181q-.069.176-.15.34l-.336.68-.456-.606a36.107,36.107,0,0,0-8.178-8.011,67.379,67.379,0,0,1,7.607,8.911l.292.407-.426.263c-2.431,1.5-6.51.672-10.391-2.11-5.1-3.653-8.111-9.5-6.723-13.041a4.1,4.1,0,0,1,2.764-2.48c2.5-.738,5.967.236,9.274,2.606a17.639,17.639,0,0,1,6.746,8.959c-.038-1.633-.088-2.664-.089-2.694l-.112-2.268,1,2.04A14.3,14.3,0,0,1,30.7,24.89c.163-3.495,3.09-7.86,7.3-10.516,3.124-1.973,6.348-2.635,8.624-1.771a4.154,4.154,0,0,1,2.609,2.821c1.056,3.655-2.129,9.184-7.1,12.325-3.8,2.4-7.667,2.827-9.84,1.079l-.361-.29.287-.363a62.7,62.7,0,0,1,7.608-8.1A32.828,32.828,0,0,0,31.8,27.182l-.513.62-.076-.2a71.085,71.085,0,0,1,.571,10.458c8.186,1.291,14.051,9.232,14.3,9.576ZM15.7,47.443H44.741c-1.7-2.046-6.932-7.672-13.487-8.517l-.412-.053.005-.416a60.159,60.159,0,0,0-.982-13.047,122.4,122.4,0,0,1-.355,13l-.038.406-.408.017c-4.758.2-9.252,3.093-13.366,8.61M11.007,16.23c-1.242,3.165,1.628,8.522,6.4,11.942,3.279,2.35,6.767,3.234,8.908,2.308-1.966-2.691-7.318-9.612-11.9-11.877l.341-.865c.285.085,6.89,2.142,13.435,10.5.8-3.2-2.016-8.208-6.552-11.459C18.6,14.6,15.359,13.656,13.167,14.3a3.153,3.153,0,0,0-2.16,1.926M33.252,28.365c1.909,1.138,5.189.605,8.374-1.406,4.644-2.934,7.65-7.992,6.7-11.277a3.252,3.252,0,0,0-2.044-2.207c-2-.761-4.916-.13-7.794,1.687-4.4,2.777-7.324,7.457-6.82,10.734,6.606-7.631,12.852-9.025,13.122-9.082l.274.889c-4.4,1.8-9.825,8.188-11.812,10.663" fill="#314839"/>
  </g>
</svg>
