<svg id="Grupo_1815" data-name="Grupo 1815" xmlns="http://www.w3.org/2000/svg" xmlns:xlink="http://www.w3.org/1999/xlink" width="62.674" height="62.785" viewBox="0 0 62.674 62.785">
  <defs>
    <clipPath id="clip-path">
      <rect id="Retângulo_1323" data-name="Retângulo 1323" width="62.674" height="62.785" fill="#314839"/>
    </clipPath>
  </defs>
  <g id="Grupo_1814" data-name="Grupo 1814" clip-path="url(#clip-path)">
    <path id="Caminho_2029" data-name="Caminho 2029" d="M62.673,53.052c.007-1.713-.51-2.34-2.285-2.32-7.24.08-14.481.036-21.722.03-.636,0-1.272-.057-2.009-.092,0-.813-.05-1.416.01-2.009.154-1.52-.527-2.055-2-1.967-1.5.089-3.016.018-4.524.018-3.876,0-3.876,0-4.34,4.053H23.755c-7.24,0-14.481.028-21.721-.021C.566,50.734,0,51.223,0,52.729Q.057,71.645,0,90.561c-.005,1.512.571,2,2.029,1.995q29.234-.042,58.468.006c1.663,0,2.183-.574,2.176-2.223q-.081-18.643,0-37.287M36.721,53.2H60.176V63.877H36.721Zm-8.293-4.136c6-.6,6-.6,6,5.087q0,13.478,0,26.956v2.463h-6ZM21.711,73.51c-.1-.6-.754-1.117-1.157-1.671-.364.536-.958,1.038-1.044,1.616A24.692,24.692,0,0,0,19.46,77H15.277a21.443,21.443,0,0,0-.055-3.5c-.1-.6-.768-1.11-1.179-1.661-.334.549-.876,1.07-.958,1.655a26.362,26.362,0,0,0-.045,3.514H8.768a18.948,18.948,0,0,0-.051-3.29,6.176,6.176,0,0,0-1.13-1.877A5.949,5.949,0,0,0,6.578,73.63a22.03,22.03,0,0,0-.046,3.363H2.382V66.41H25.853v10.6H21.765a21.873,21.873,0,0,0-.054-3.5M2.313,53.2H25.828V63.875H2.313ZM60.146,90.131H2.323V79.522H25.965c0,1.575.038,3.069-.012,4.56-.042,1.267.405,1.91,1.767,1.882,2.412-.05,4.826-.039,7.238,0,1.222.017,1.759-.48,1.712-1.729-.059-1.548-.014-3.1-.014-4.756h23.49Zm.077-13.111H56.282a12.316,12.316,0,0,0-.126-1.781c-.251-1.165.8-3.262-1.1-3.264-2.082,0-.907,2.157-1.185,3.356a10.883,10.883,0,0,0-.118,1.695H49.64a25.7,25.7,0,0,0-.049-3.563c-.081-.569-.678-1.065-1.041-1.594-.376.5-1,.973-1.077,1.52a26.411,26.411,0,0,0-.051,3.649H43.17a25.2,25.2,0,0,0-.053-3.654c-.084-.556-.729-1.028-1.119-1.538-.353.527-.934,1.023-1.011,1.587a27.38,27.38,0,0,0-.047,3.623H36.791V66.4H60.223Z" transform="translate(-0.001 -29.777)" fill="#314839"/>
    <path id="Caminho_2030" data-name="Caminho 2030" d="M93.114,28.963c.4.191,1.409-.323,1.806-.8A6.315,6.315,0,0,1,99.5,25.584a6.769,6.769,0,0,1,5.642,2.667c.4.446,1.234.5,1.869.733-.017-.69.225-1.545-.092-2.044-3.05-4.806-10.649-4.821-13.834-.087-.495.735-1.029,1.606.034,2.111" transform="translate(-59 -14.874)" fill="#314839"/>
    <path id="Caminho_2031" data-name="Caminho 2031" d="M40.411,28.835c.638-.241,1.482-.3,1.883-.752,3.172-3.571,7.15-3.56,10.224.026.387.452,1.235.508,1.869.747-.045-.744.181-1.675-.182-2.2a8.32,8.32,0,0,0-13.6-.014c-.362.523-.142,1.45-.19,2.191" transform="translate(-25.761 -14.749)" fill="#314839"/>
    <path id="Caminho_2032" data-name="Caminho 2032" d="M84.454,9.4c.349-.462.934-.893,1-1.393A25.388,25.388,0,0,0,85.5,4.578a26.654,26.654,0,0,0-.045-3.252C85.4.855,84.875.441,84.564,0c-.417.41-1.17.8-1.194,1.234a67.11,67.11,0,0,0-.028,6.871c.021.449.724.867,1.112,1.3" transform="translate(-53.111 -0.001)" fill="#314839"/>
    <path id="Caminho_2033" data-name="Caminho 2033" d="M146.282,145.021a6.13,6.13,0,0,0,1.742-1.011l-1.78-1.737c-.814.757-1.663,1.169-1.727,1.68-.159,1.265.985,1.22,1.764,1.068" transform="translate(-92.17 -90.747)" fill="#314839"/>
    <path id="Caminho_2034" data-name="Caminho 2034" d="M51.15,142.272l-1.793,1.74a6.255,6.255,0,0,0,1.752,1.005c.784.155,1.924.2,1.763-1.07-.064-.511-.911-.922-1.722-1.676" transform="translate(-31.482 -90.747)" fill="#314839"/>
    <path id="Caminho_2035" data-name="Caminho 2035" d="M132.692,155.247c-.62-.391-1.223-1.048-1.867-1.091-.548-.037-1.143.634-1.717.992l1.734,1.734,1.85-1.635" transform="translate(-82.35 -98.326)" fill="#314839"/>
    <path id="Caminho_2036" data-name="Caminho 2036" d="M20.449,142.306,18.59,144.03a6.6,6.6,0,0,0,1.773,1.011c.795.169,1.917.193,1.776-1.06-.057-.509-.9-.929-1.69-1.674" transform="translate(-11.857 -90.769)" fill="#314839"/>
    <path id="Caminho_2037" data-name="Caminho 2037" d="M34.132,153.954c.532.406,1.063,1.133,1.6,1.135.664,0,1.33-.593,2-.931l-1.607-1.793-1.986,1.589" transform="translate(-21.771 -97.185)" fill="#314839"/>
    <path id="Caminho_2038" data-name="Caminho 2038" d="M117.149,145.132c-.565-.376-1.144-1.07-1.69-1.045-.652.03-1.276.675-1.912,1.055l1.763,1.648,1.839-1.658" transform="translate(-72.425 -91.904)" fill="#314839"/>
  </g>
</svg>
