<svg xmlns="http://www.w3.org/2000/svg" width="27.685" height="58.52" viewBox="0 0 27.685 58.52">
  <path id="Caminho_2059" data-name="Caminho 2059" d="M1108.062,808.52V766.371a17.932,17.932,0,0,0-4.054-11.576,12.388,12.388,0,0,0-19.576,0,17.79,17.79,0,0,0-4.031,10.632h7.094a8.628,8.628,0,0,1,1.937-4.719,6.06,6.06,0,0,1,9.577,0,8.773,8.773,0,0,1,1.984,5.663c0,7.44-10.137,9.874-17.174,11.563-1.278.307-2.448.588-3.441.874V808.52Zm-20.287-19.259h12.888a.957.957,0,0,1,0,1.888h-12.888a.957.957,0,0,1,0-1.888m0,8.314h12.888a.957.957,0,0,1,0,1.888h-12.888a.957.957,0,0,1,0-1.888" transform="translate(-1080.377 -750)" fill="#b56b55" fill-rule="evenodd"/>
</svg>
