<svg xmlns="http://www.w3.org/2000/svg" width="56.26" height="58.52" viewBox="0 0 56.26 58.52">
  <g id="Grupo_1878" data-name="Grupo 1878" transform="translate(-779.586 -2305.946)">
    <rect id="Retângulo_1360" data-name="Retângulo 1360" width="56.26" height="58.52" transform="translate(779.586 2305.946)" fill="none"/>
    <path id="Caminho_2059" data-name="Caminho 2059" d="M1108.062,799.482V763.842a13.843,13.843,0,0,0-27.662-.8h7.094a6.773,6.773,0,0,1,13.5.8c0,6.291-10.137,8.349-17.174,9.777-1.278.259-2.448.5-3.441.739v25.123ZM1087.775,783.2h12.888a.8.8,0,1,1,0,1.6h-12.888a.8.8,0,0,1,0-1.6m0,7.03h12.888a.8.8,0,1,1,0,1.6h-12.888a.8.8,0,0,1,0-1.6" transform="translate(-286.503 1560.707)" fill="#b56b55" fill-rule="evenodd"/>
  </g>
</svg>
