<svg xmlns="http://www.w3.org/2000/svg" xmlns:xlink="http://www.w3.org/1999/xlink" width="54" height="58.465" viewBox="0 0 54 58.465">
  <defs>
    <clipPath id="clip-path">
      <rect id="Retângulo_1340" data-name="Retângulo 1340" width="54" height="58.465" fill="#314839"/>
    </clipPath>
  </defs>
  <g id="Grupo_1844" data-name="Grupo 1844" transform="translate(-1045 -3005)">
    <g id="Grupo_1843" data-name="Grupo 1843" transform="translate(1045 3005)">
      <g id="Grupo_1842" data-name="Grupo 1842" clip-path="url(#clip-path)">
        <path id="Caminho_2064" data-name="Caminho 2064" d="M99.734,131.79a5.089,5.089,0,0,1-3.006-1.6,7.973,7.973,0,0,1-1.135-1.945c-.184-.455-.324-.656-.848-.647a4.113,4.113,0,0,1-3.724-6.189c.055-.1.111-.2.164-.3a.421.421,0,0,0,.011-.1,4.154,4.154,0,0,1-2.912-2.965,4.022,4.022,0,0,1,.975-3.869c-.568-.632-1.1-1.25-1.661-1.845a17.161,17.161,0,0,1-4.252-7.827,17.517,17.517,0,0,1,29.162-16.8,3.4,3.4,0,0,1,.245.238.859.859,0,0,1,.02,1.187.808.808,0,0,1-1.179.069c-.666-.536-1.286-1.133-1.976-1.636a15.2,15.2,0,0,0-11.094-2.9A15.563,15.563,0,0,0,85.04,96.633a15.3,15.3,0,0,0,3.744,14.393,19.92,19.92,0,0,0,1.974,1.807.966.966,0,0,0,.6.148c.455-.009.908-.1,1.363-.1q7.649-.011,15.3,0a3.845,3.845,0,0,1,1.077.077,1.15,1.15,0,0,0,1.164-.33,15.611,15.611,0,0,0,5.767-10.35,15.318,15.318,0,0,0-1.949-9.78c-.131-.231-.283-.452-.407-.687a.9.9,0,0,1,.227-1.261.886.886,0,0,1,1.262.381,16.222,16.222,0,0,1,2.264,5.384A17.325,17.325,0,0,1,113.5,111.9c-.332.39-.7.755-1.062,1.114-.35.344-.723.665-1.085,1a4.185,4.185,0,0,1-1.828,7,10.819,10.819,0,0,1,.571,1.285,4.057,4.057,0,0,1-3.835,5.281,1.085,1.085,0,0,0-1.2.89,4.819,4.819,0,0,1-3.7,3.217c-.128.03-.252.073-.378.111Zm.618-17.149v-.005c-2.626,0-5.253.008-7.879,0a2.451,2.451,0,0,0-2.031.841,2.265,2.265,0,0,0-.369,2.46,2.188,2.188,0,0,0,2.033,1.419c.817.032,1.64-.031,2.452.043a1.273,1.273,0,0,1,.86.51.946.946,0,0,1-.109.871,1.379,1.379,0,0,1-.85.352,2.37,2.37,0,1,0,.215,4.735c1.561.011,3.121,0,4.682,0,2.284,0,4.567.015,6.851-.01a2.325,2.325,0,0,0,2.327-2.49A2.349,2.349,0,0,0,106,121.132c-2.436-.016-4.872,0-7.308-.007a3.615,3.615,0,0,1-.736-.059.756.756,0,0,1-.637-.768.765.765,0,0,1,.6-.853,2.955,2.955,0,0,1,.733-.072q4.824-.007,9.648,0a2.364,2.364,0,1,0,.214-4.721c-2.721-.036-5.443-.01-8.164-.01m3.114,13.015H97.239a3.244,3.244,0,0,0,3.193,2.394,3.173,3.173,0,0,0,3.033-2.394" transform="translate(-73.363 -73.325)" fill="#314839"/>
        <path id="Caminho_2065" data-name="Caminho 2065" d="M229.966,0a1.234,1.234,0,0,1,.587,1.2c-.022,1.71-.005,3.42-.01,5.13,0,.713-.313,1.1-.86,1.105s-.862-.39-.864-1.1c0-1.71.013-3.42-.01-5.13a1.267,1.267,0,0,1,.586-1.2Z" transform="translate(-202.681)" fill="#314839"/>
        <path id="Caminho_2066" data-name="Caminho 2066" d="M144.383,171.764a16.067,16.067,0,0,1,10.928,4.654c.49.467.569.947.222,1.343-.37.422-.876.419-1.4-.074a14.844,14.844,0,0,0-20.02-.577c-.262.22-.5.466-.767.682a.856.856,0,0,1-1.27-.021.871.871,0,0,1,.123-1.268A16.53,16.53,0,0,1,137.491,173a17.394,17.394,0,0,1,6.892-1.234" transform="translate(-116.803 -152.15)" fill="#314839"/>
        <path id="Caminho_2067" data-name="Caminho 2067" d="M165.51,206.731a12.623,12.623,0,0,1,8.958,3.475c.483.454.574.958.245,1.349-.363.431-.882.436-1.4-.053a10.5,10.5,0,0,0-5.437-2.823,10.613,10.613,0,0,0-9.363,2.621c-.114.1-.222.209-.342.3a.86.86,0,0,1-1.271-.035.888.888,0,0,1,.137-1.271,12.311,12.311,0,0,1,6.765-3.4c.655-.1,1.322-.129,1.705-.165" transform="translate(-138.8 -183.124)" fill="#314839"/>
        <path id="Caminho_2068" data-name="Caminho 2068" d="M187.736,241.785a8.379,8.379,0,0,1,5.823,2.313c.494.461.573.947.235,1.346s-.876.389-1.4-.065a6.768,6.768,0,0,0-9.349,0c-.513.439-1,.476-1.363.1-.381-.4-.312-.908.2-1.388a8.393,8.393,0,0,1,5.855-2.31" transform="translate(-160.718 -214.176)" fill="#314839"/>
        <path id="Caminho_2069" data-name="Caminho 2069" d="M209.651,276.859a4.5,4.5,0,0,1,3.057,1.2.867.867,0,1,1-1.077,1.351c-1.593-1.123-2.359-1.119-4.01.018a.879.879,0,0,1-1.229-.087.861.861,0,0,1,.153-1.262,4.527,4.527,0,0,1,3.106-1.22" transform="translate(-182.638 -245.244)" fill="#314839"/>
        <path id="Caminho_2070" data-name="Caminho 2070" d="M32.166,323.169c-.2-.164-.553-.315-.635-.558a1.746,1.746,0,0,1,.124-.941c.034-.116.22-.2.35-.275,1.527-.886,3.054-1.772,4.59-2.643.206-.116.5-.255.685-.187a1.385,1.385,0,0,1,.733.6.771.771,0,0,1-.418,1.006q-2.411,1.405-4.835,2.789a4.078,4.078,0,0,1-.594.21" transform="translate(-27.902 -282.174)" fill="#314839"/>
        <path id="Caminho_2071" data-name="Caminho 2071" d="M118.082,37.424a1.889,1.889,0,0,1-.581-.475c-.955-1.6-1.88-3.21-2.8-4.829a.864.864,0,1,1,1.493-.856c.933,1.587,1.859,3.179,2.761,4.783.378.672.014,1.361-.877,1.377" transform="translate(-101.476 -27.247)" fill="#314839"/>
        <path id="Caminho_2072" data-name="Caminho 2072" d="M319.483,37.822c-.722.011-1.133-.48-1.006-1.026a1.969,1.969,0,0,1,.226-.518c.849-1.483,1.692-2.969,2.567-4.436a1.319,1.319,0,0,1,.683-.613.965.965,0,0,1,.836.274,1.063,1.063,0,0,1,.1.934c-.918,1.682-1.885,3.338-2.867,4.985-.127.213-.428.322-.536.4" transform="translate(-282.089 -27.651)" fill="#314839"/>
        <path id="Caminho_2073" data-name="Caminho 2073" d="M31.4,113.823a6.461,6.461,0,0,1,.763.3c1.532.877,3.063,1.755,4.58,2.657a1.109,1.109,0,0,1,.538.609,1.206,1.206,0,0,1-.245.866.777.777,0,0,1-1.043.08q-2.418-1.392-4.832-2.791a.786.786,0,0,1-.423-1.008c.122-.285.442-.486.663-.714" transform="translate(-27.17 -100.826)" fill="#314839"/>
        <path id="Caminho_2074" data-name="Caminho 2074" d="M385.309,119.284c-.183-.145-.538-.291-.627-.534a1.649,1.649,0,0,1,.1-.939c.039-.131.249-.222.4-.307q2.265-1.316,4.535-2.623a1.99,1.99,0,0,1,.251-.133.884.884,0,0,1,1.14.357.837.837,0,0,1-.314,1.144c-1.649.977-3.314,1.928-4.976,2.883a2.871,2.871,0,0,1-.508.152" transform="translate(-340.722 -101.577)" fill="#314839"/>
        <path id="Caminho_2075" data-name="Caminho 2075" d="M384.746,318.288a4.19,4.19,0,0,1,.577.234q2.275,1.3,4.539,2.618c.612.356.792.828.52,1.308s-.777.549-1.39.2c-1.531-.879-3.058-1.767-4.587-2.648-.375-.216-.671-.525-.532-.961.085-.266.378-.469.591-.688.043-.045.144-.033.282-.059" transform="translate(-340.008 -281.943)" fill="#314839"/>
        <path id="Caminho_2076" data-name="Caminho 2076" d="M3.673,230.638c-.874,0-1.747.006-2.621,0C.393,230.63,0,230.3,0,229.77s.4-.857,1.06-.859q2.678-.01,5.355,0c.633,0,1,.321,1.011.838.013.542-.362.878-1.019.885-.911.009-1.823,0-2.735,0" transform="translate(0 -202.768)" fill="#314839"/>
        <path id="Caminho_2077" data-name="Caminho 2077" d="M411.551,230.637c-.892,0-1.785.007-2.677,0-.633-.007-1-.319-1.012-.835-.015-.54.363-.885,1.019-.888q2.677-.012,5.354,0c.655,0,1.056.345,1.053.866s-.4.853-1.06.858c-.892.008-1.785,0-2.677,0" transform="translate(-361.288 -202.767)" fill="#314839"/>
      </g>
    </g>
  </g>
</svg>
