<svg id="Grupo_1831" data-name="Grupo 1831" xmlns="http://www.w3.org/2000/svg" xmlns:xlink="http://www.w3.org/1999/xlink" width="56.259" height="58.517" viewBox="0 0 56.259 58.517">
  <defs>
    <clipPath id="clip-path">
      <rect id="Retângulo_1336" data-name="Retângulo 1336" width="56.259" height="58.517" fill="#b56b55"/>
    </clipPath>
  </defs>
  <g id="Grupo_1830" data-name="Grupo 1830" clip-path="url(#clip-path)">
    <path id="Caminho_2060" data-name="Caminho 2060" d="M1.024,19.381H25.942a1.024,1.024,0,0,0,1.024-1.024V1.024A1.024,1.024,0,0,0,25.942,0H1.024A1.024,1.024,0,0,0,0,1.024V18.357a1.024,1.024,0,0,0,1.024,1.024M2.048,2.048h22.87V17.333H2.048Z" fill="#b56b55"/>
    <path id="Caminho_2061" data-name="Caminho 2061" d="M1.024,70.06H15.5v16.4a1.024,1.024,0,0,0,1.024,1.024H39.735a1.024,1.024,0,0,0,1.024-1.024V70.06H55.235a1.024,1.024,0,0,0,1.024-1.024V51.7a1.025,1.025,0,0,0-1.024-1.024H30.318A1.024,1.024,0,0,0,29.294,51.7v1.269A9.846,9.846,0,0,0,28.13,52.9a10.039,10.039,0,0,0-1.164.072V51.7a1.025,1.025,0,0,0-1.024-1.024H1.024A1.025,1.025,0,0,0,0,51.7V69.036A1.024,1.024,0,0,0,1.024,70.06M38.711,85.437H17.548V63.82H38.711ZM31.342,52.726h22.87V68.011H40.759V62.8a1.024,1.024,0,0,0-1.024-1.024h-1.76a9.917,9.917,0,0,0-6.634-8.329Zm4.564,9.045H20.352a7.835,7.835,0,0,1,5.84-6.587,7.855,7.855,0,0,1,9.714,6.587M2.048,52.726h22.87v.7a9.882,9.882,0,0,0-6.628,8.341H16.524A1.024,1.024,0,0,0,15.5,62.8v5.216H2.048Z" transform="translate(0 -28.968)" fill="#b56b55"/>
    <path id="Caminho_2062" data-name="Caminho 2062" d="M69.4,0a1.024,1.024,0,0,0-1.024,1.024V18.357A1.024,1.024,0,0,0,69.4,19.381H94.323a1.024,1.024,0,0,0,1.024-1.024V1.024A1.024,1.024,0,0,0,94.323,0ZM93.3,17.333H70.429V2.048H93.3Z" transform="translate(-39.087)" fill="#b56b55"/>
  </g>
</svg>
