<svg xmlns="http://www.w3.org/2000/svg" xmlns:xlink="http://www.w3.org/1999/xlink" width="61.449" height="63.202" viewBox="0 0 61.449 63.202">
  <defs>
    <clipPath id="clip-path">
      <rect id="Retângulo_1352" data-name="Retângulo 1352" width="61.449" height="63.202" fill="#b56b55"/>
    </clipPath>
  </defs>
  <g id="Grupo_1870" data-name="Grupo 1870" transform="translate(-1299 -2203)">
    <g id="Grupo_1869" data-name="Grupo 1869" transform="translate(1299 2203)">
      <g id="Grupo_1868" data-name="Grupo 1868" clip-path="url(#clip-path)">
        <path id="Caminho_2096" data-name="Caminho 2096" d="M22.056,42.246c-1.408-.131-2.765-.239-4.118-.388-2.59-.286-5.173-.657-7.768-.88a19.3,19.3,0,0,0-8.6,1.131C.651,42.457.006,42.035,0,41.069a8.1,8.1,0,0,1,1.587-5.231,1.117,1.117,0,0,0,.068-.886,22.226,22.226,0,0,1-1.3-8.364,10.943,10.943,0,0,1,.551-3.109,28.734,28.734,0,0,0,1.4-11.371A8.583,8.583,0,0,0,1.325,8.2,12.288,12.288,0,0,1,0,2.207C.006,1.167.783.677,1.66,1.2,4.747,3.02,8.039,3.06,11.405,2.31q3.4-.757,6.758-1.662a21.185,21.185,0,0,1,10.79.11C31.528,1.4,34.1,2.115,36.7,2.573A11.5,11.5,0,0,0,44.85,1.2a1.051,1.051,0,0,1,1.68,1,14.981,14.981,0,0,1-1.562,6.568,6.1,6.1,0,0,0-.653,2.169,29.123,29.123,0,0,0,.717,10.683,19.354,19.354,0,0,1,1.183,6.119.612.612,0,0,0,.3.449,30.757,30.757,0,0,1,6.473,4.752,11.059,11.059,0,0,0,5.072,2.836,9.993,9.993,0,0,0,2.073.151c1.108-.016,1.629.728,1.13,1.721a10.478,10.478,0,0,1-3.215,3.813,2.344,2.344,0,0,0-.662.628,21.829,21.829,0,0,0-3.294,8.762,11.345,11.345,0,0,1-3.121,6.119,3.262,3.262,0,0,0-1.13,2.736,6.439,6.439,0,0,1-.712,2.805,1,1,0,0,1-1.763.287,15.16,15.16,0,0,0-6.932-4.065A44.357,44.357,0,0,1,27.2,52.308a15.74,15.74,0,0,0-7.671-3.072,1,1,0,0,1-.84-1.484,5.589,5.589,0,0,1,2.235-2.7,1.484,1.484,0,0,0,.873-1.385,9.863,9.863,0,0,1,.258-1.418M2.24,39.571c5.526-.969,6.471-.968,11.914-.3,2.637.325,5.288.535,7.93.819.5.053.688-.145.918-.569a11.711,11.711,0,0,1,1.814-2.851,21.78,21.78,0,0,0,4.826-7.849,2.728,2.728,0,0,0,.162-1.05,10.619,10.619,0,0,1,1.068-5.023,1.051,1.051,0,0,1,1.946-.156,7.372,7.372,0,0,0,4.063,3.068c2.336.689,4.732,1.174,7.335,1.8a20.9,20.9,0,0,0-.65-3.414,28.876,28.876,0,0,1-1.522-10.587c0-.262,0-.524,0-.9-.443.331-.749.565-1.061.79a1.06,1.06,0,0,1-1.587-.069c-.478-.562-.283-1.092.2-1.57.845-.835,1.724-1.641,2.51-2.529a9.9,9.9,0,0,0,2.169-5.245,2.794,2.794,0,0,0-.4.064,14.762,14.762,0,0,1-8.16.569c-2.5-.524-4.952-1.234-7.444-1.778C26,2.307,23.722,1.747,21.378,2.239c-2.7.567-5.407,1.1-8.07,1.8C9.681,5,6.1,5.292,2.505,3.969c-.058-.022-.139.019-.207.03A9.387,9.387,0,0,0,4.813,9.6Q5.881,10.672,6.95,11.74a1.081,1.081,0,0,1,.189,1.528c-.357.5-.953.527-1.583.1-.336-.224-.652-.478-1.081-.8,0,.356,0,.6,0,.845a27.655,27.655,0,0,1-1.317,9.92,12,12,0,0,0-.7,5.019,23.22,23.22,0,0,0,1.587,6.91c.216.562.255,1.083-.27,1.462A4.153,4.153,0,0,0,2.24,39.571m56.212-1.423c-1.1-.375-2.139-.669-3.13-1.082a18.369,18.369,0,0,1-4.637-3.321c-2.165-1.838-4.313-3.717-7.228-4.311-1.01-.206-2-.51-3.017-.68-2.965-.5-5.8-1.276-8.08-3.393-.028-.026-.1-.008-.161-.012-.025.066-.057.132-.076.2a7.959,7.959,0,0,0,.7,5.188c.259.653.353,1.272-.356,1.7-.533.32-1.041.092-1.592-.653-.018-.024-.078-.018-.146-.031a24.094,24.094,0,0,1-4.075,6.075,9.512,9.512,0,0,0-1.929,3.117,22.637,22.637,0,0,0-.963,4.2c-.128.741-.338,1.245-1.143,1.434a4.481,4.481,0,0,0-1.116.634,25.056,25.056,0,0,1,7.749,3.9,37.772,37.772,0,0,0,10.956,5.3,21.067,21.067,0,0,1,7.25,3.559,1.137,1.137,0,0,0,.337.094,2.981,2.981,0,0,0-.087-1.05c-.505-.973-.118-1.59.59-2.289,1.858-1.835,3.468-3.864,3.768-6.587a19.419,19.419,0,0,1,1.76-5.9c.153-.337.31-.672.494-1.072-.216,0-.317,0-.417,0a1.014,1.014,0,0,1-1.2-.841c-.137-.683.245-1.066.849-1.275.56-.193,1.116-.406,1.686-.565a6.511,6.511,0,0,0,3.216-2.339" transform="translate(0 -0.001)" fill="#b56b55"/>
        <path id="Caminho_2097" data-name="Caminho 2097" d="M54.722,262.59a3.7,3.7,0,0,1,.01-7.406,3.7,3.7,0,1,1-.01,7.406m0-2.131a1.562,1.562,0,0,0,1.6-1.542,1.593,1.593,0,0,0-1.556-1.6,1.554,1.554,0,0,0-1.59,1.551,1.536,1.536,0,0,0,1.543,1.591" transform="translate(-40.483 -202.35)" fill="#b56b55"/>
        <path id="Caminho_2098" data-name="Caminho 2098" d="M250.29,54.929c0-.232-.017-.466,0-.7a1.012,1.012,0,0,1,1.027-1.045.985.985,0,0,1,1.079.984,8.522,8.522,0,0,1,0,1.622.99.99,0,0,1-1.091.973,1,1,0,0,1-1.005-.987,7.609,7.609,0,0,1-.006-.85h-.005" transform="translate(-198.464 -42.175)" fill="#b56b55"/>
        <path id="Caminho_2099" data-name="Caminho 2099" d="M250.3,83.855a4.727,4.727,0,0,1,.009-.848,1.006,1.006,0,0,1,1.065-.918.966.966,0,0,1,1,.892A8.185,8.185,0,0,1,252.4,84.6a1,1,0,0,1-1.082,1.058c-.693-.017-.994-.459-1.037-1.107-.015-.231,0-.464,0-.7h.016" transform="translate(-198.459 -65.093)" fill="#b56b55"/>
        <path id="Caminho_2100" data-name="Caminho 2100" d="M263.113,73.292a6.432,6.432,0,0,1-.925-.008.946.946,0,0,1-.875-1,.912.912,0,0,1,.84-1.023,10.778,10.778,0,0,1,1.771-.021.943.943,0,0,1,.958,1.007.981.981,0,0,1-1,1.054c-.255.022-.514,0-.771,0v-.009" transform="translate(-207.211 -56.466)" fill="#b56b55"/>
        <path id="Caminho_2101" data-name="Caminho 2101" d="M234.162,73.275c-.283,0-.568.021-.849,0a.969.969,0,0,1-.972-1,.956.956,0,0,1,.98-1.064,11.384,11.384,0,0,1,1.619,0,.947.947,0,0,1,.965,1.072.973.973,0,0,1-1.048,1c-.231.012-.463,0-.695,0v0" transform="translate(-184.236 -56.441)" fill="#b56b55"/>
        <path id="Caminho_2102" data-name="Caminho 2102" d="M27.616,230.716a1.035,1.035,0,1,1-1.007-1.065,1.049,1.049,0,0,1,1.007,1.065" transform="translate(-20.258 -182.104)" fill="#b56b55"/>
        <path id="Caminho_2103" data-name="Caminho 2103" d="M23.77,104.7a11.992,11.992,0,0,0,1.389,6.04c.422.757.976.987,1.569.672s.628-.871.308-1.682a15.914,15.914,0,0,1-1-3.146,16.262,16.262,0,0,1,1.07-8.123c.289-.825.117-1.41-.481-1.642-.649-.251-1.193.068-1.511.925A20.532,20.532,0,0,0,23.77,104.7" transform="translate(-18.848 -76.711)" fill="#b56b55"/>
        <path id="Caminho_2104" data-name="Caminho 2104" d="M216.83,225.589l.129-.152c-.312-.285-.579-.684-.946-.829-.563-.223-.988.119-1.221.652-.351.8-.64,1.634-1.039,2.411-.919,1.792-1.831,3.592-3.836,4.481a.917.917,0,0,0-.366,1.287.892.892,0,0,0,1.2.564,7.7,7.7,0,0,0,2.02-1.238,16.659,16.659,0,0,0,4-6.794,1.906,1.906,0,0,0,.058-.381" transform="translate(-166.074 -178.049)" fill="#b56b55"/>
        <path id="Caminho_2105" data-name="Caminho 2105" d="M23.771,104.7a20.517,20.517,0,0,1,1.345-6.956c.317-.856.861-1.176,1.51-.925.6.232.77.817.481,1.642a16.262,16.262,0,0,0-1.07,8.123,15.888,15.888,0,0,0,1,3.146c.32.811.282,1.368-.308,1.682s-1.148.085-1.569-.672a11.989,11.989,0,0,1-1.389-6.04" transform="translate(-18.849 -76.71)" fill="#b56b55"/>
        <path id="Caminho_2106" data-name="Caminho 2106" d="M216.83,225.589a1.906,1.906,0,0,1-.058.381,16.659,16.659,0,0,1-4,6.794A7.7,7.7,0,0,1,210.75,234a.892.892,0,0,1-1.2-.564.917.917,0,0,1,.366-1.287c2.005-.889,2.917-2.689,3.836-4.481.4-.777.687-1.609,1.039-2.411.234-.533.658-.875,1.221-.652.367.146.634.544.946.829l-.129.152" transform="translate(-166.074 -178.049)" fill="#b56b55"/>
      </g>
    </g>
  </g>
</svg>
