<svg xmlns="http://www.w3.org/2000/svg" width="21.4" height="21.4" viewBox="0 0 21.4 21.4">
  <path id="Caminho_455" data-name="Caminho 455" d="M217.6,874.8a3.418,3.418,0,1,0-1,2.5A3.317,3.317,0,0,0,217.6,874.8Zm1.9,0a5.284,5.284,0,0,1-1.6,3.9,5.132,5.132,0,0,1-3.9,1.6,5.284,5.284,0,0,1-3.9-1.6,5.5,5.5,0,0,1,3.9-9.4,5.463,5.463,0,0,1,5.5,5.5Zm1.5-5.6a.975.975,0,0,1-.4.9,1.489,1.489,0,0,1-.9.4.975.975,0,0,1-.9-.4,1.268,1.268,0,0,1-.4-.9.975.975,0,0,1,.4-.9,1.267,1.267,0,0,1,.9-.4.975.975,0,0,1,.9.4A1.489,1.489,0,0,1,221,869.2Zm-7-3.1h-3.9c-.5,0-1,.1-1.4.1-.4.1-.7.2-1,.3a3.6,3.6,0,0,0-1.2.8,5.024,5.024,0,0,0-.8,1.2c-.1.3-.2.6-.3,1a6.15,6.15,0,0,0-.1,1.4v7.8c0,.5.1,1,.1,1.4.1.4.2.7.3,1a3.6,3.6,0,0,0,.8,1.2,5.026,5.026,0,0,0,1.2.8c.3.1.6.2,1,.3a6.151,6.151,0,0,0,1.4.1h7.8c.5,0,1-.1,1.4-.1.4-.1.7-.2,1-.3a3.6,3.6,0,0,0,1.2-.8,5.024,5.024,0,0,0,.8-1.2c.1-.3.2-.6.3-1a6.15,6.15,0,0,0,.1-1.4v-7.8c0-.5-.1-1-.1-1.4-.1-.4-.2-.7-.3-1a3.6,3.6,0,0,0-.8-1.2,5.026,5.026,0,0,0-1.2-.8c-.3-.1-.6-.2-1-.3a6.151,6.151,0,0,0-1.4-.1H214Zm10.7,8.7c0,2.1,0,3.6-.1,4.4a7.04,7.04,0,0,1-1.7,4.5,6.356,6.356,0,0,1-4.5,1.7c-.8,0-2.3.1-4.4.1s-3.6,0-4.4-.1a7.04,7.04,0,0,1-4.5-1.7,6.355,6.355,0,0,1-1.7-4.5c0-.8-.1-2.3-.1-4.4s0-3.6.1-4.4a7.04,7.04,0,0,1,1.7-4.5,6.356,6.356,0,0,1,4.5-1.7c.8,0,2.3-.1,4.4-.1s3.6,0,4.4.1a7.04,7.04,0,0,1,4.5,1.7,6.355,6.355,0,0,1,1.7,4.5C224.7,871.3,224.7,872.7,224.7,874.8Z" transform="translate(-203.3 -864.1)" fill="#fff"/>
</svg>
