<svg xmlns="http://www.w3.org/2000/svg" width="34.987" height="34.987" viewBox="0 0 34.987 34.987">
  <path id="brand_whatsapp" data-name="brand whatsapp" d="M29.747,37.084A17.343,17.343,0,0,0,2.46,58.006L0,66.987l9.192-2.413a17.285,17.285,0,0,0,8.286,2.109h.008a17.227,17.227,0,0,0,12.261-29.6ZM17.486,63.762a14.385,14.385,0,0,1-7.341-2.007l-.523-.312L4.17,62.872l1.453-5.318-.344-.547a14.438,14.438,0,1,1,26.779-7.661A14.571,14.571,0,0,1,17.486,63.762Zm7.9-10.793c-.43-.219-2.562-1.265-2.96-1.406s-.687-.219-.976.219-1.117,1.406-1.375,1.7-.508.328-.937.109c-2.546-1.273-4.217-2.273-5.9-5.154-.445-.765.445-.711,1.273-2.366a.8.8,0,0,0-.039-.758c-.109-.219-.976-2.351-1.335-3.218-.351-.843-.711-.726-.976-.742-.25-.016-.539-.016-.828-.016a1.6,1.6,0,0,0-1.156.539A4.868,4.868,0,0,0,8.669,45.5a8.487,8.487,0,0,0,1.765,4.483c.219.289,3.054,4.662,7.4,6.545,2.749,1.187,3.827,1.289,5.2,1.086a4.437,4.437,0,0,0,2.921-2.062,3.623,3.623,0,0,0,.25-2.062C26.108,53.289,25.819,53.18,25.389,52.969Z" transform="translate(0 -32)" fill="#fff3f3"/>
</svg>
