<svg xmlns="http://www.w3.org/2000/svg" xmlns:xlink="http://www.w3.org/1999/xlink" width="60.9" height="60" viewBox="0 0 60.9 60">
  <defs>
    <clipPath id="clip-path">
      <rect id="Retângulo_1326" data-name="Retângulo 1326" width="60.9" height="60" transform="translate(0 0)" fill="#b56b55"/>
    </clipPath>
  </defs>
  <g id="Grupo_1824" data-name="Grupo 1824" transform="translate(0 0.005)">
    <g id="Grupo_1823" data-name="Grupo 1823" transform="translate(0 -0.005)" clip-path="url(#clip-path)">
      <path id="Caminho_2042" data-name="Caminho 2042" d="M.95,1392.492a.951.951,0,0,1-.7-1.594l10.1-11a9.278,9.278,0,0,1,6.6-2.9l.854-.022a7.819,7.819,0,0,0,5-1.907l5.518-4.9a4.473,4.473,0,0,1,5.86,0,3.609,3.609,0,0,1,0,5.5l-7.438,6.6a.951.951,0,0,1-1.262-1.423l7.438-6.6a1.71,1.71,0,0,0,0-2.655,2.613,2.613,0,0,0-3.337,0l-5.518,4.9a9.722,9.722,0,0,1-6.218,2.385L17,1378.9a7.369,7.369,0,0,0-5.248,2.283l-10.1,11A.948.948,0,0,1,.95,1392.492Z" transform="translate(0 -1336.535)" fill="#b56b55"/>
      <path id="Caminho_2043" data-name="Caminho 2043" d="M558.859,1385.266a.951.951,0,0,1-.669-1.627l5.07-5.016,23.239-6.768,15.4-8.931a1.892,1.892,0,0,0,.9-1.262,1.681,1.681,0,0,0-.352-1.343,2.585,2.585,0,0,0-3.278-.5l-.028.017-14.54,7.6-9.437.273a.951.951,0,1,1-.055-1.9l9-.26,14.095-7.366a4.441,4.441,0,0,1,5.742.972,3.559,3.559,0,0,1,.724,2.851,3.833,3.833,0,0,1-1.8,2.557l-15.62,9.06-23,6.7-4.727,4.676A.947.947,0,0,1,558.859,1385.266Z" transform="translate(-544.647 -1325.266)" fill="#b56b55"/>
      <path id="Linha_9" data-name="Linha 9" d="M18.491-38.1h-57.54A.951.951,0,0,1-40-39.049.951.951,0,0,1-39.049-40h57.54a.951.951,0,0,1,.951.951A.951.951,0,0,1,18.491-38.1Z" transform="translate(41.459 68.188)" fill="#b56b55"/>
      <path id="Caminho_2044" data-name="Caminho 2044" d="M376.778,269.523a.951.951,0,0,1-.951-.951,21.408,21.408,0,1,0-42.815,0,.951.951,0,0,1-1.9,0,23.309,23.309,0,1,1,46.618,0A.951.951,0,0,1,376.778,269.523Z" transform="translate(-323.24 -239.433)" fill="#b56b55"/>
      <path id="Caminho_2045" data-name="Caminho 2045" d="M1096.347,7.974a.951.951,0,0,1-.951-.951V5.138a5.143,5.143,0,0,1,10.286,0V7.022a.951.951,0,1,1-1.9,0V5.138a3.241,3.241,0,0,0-6.483,0V7.023A.951.951,0,0,1,1096.347,7.974Z" transform="translate(-1069.36 0.005)" fill="#b56b55"/>
    </g>
  </g>
</svg>
