<svg xmlns="http://www.w3.org/2000/svg" xmlns:xlink="http://www.w3.org/1999/xlink" width="63.255" height="59.025" viewBox="0 0 63.255 59.025">
  <defs>
    <clipPath id="clip-path">
      <rect id="Retângulo_1342" data-name="Retângulo 1342" width="63.255" height="59.025" fill="#314839"/>
    </clipPath>
  </defs>
  <g id="Grupo_1856" data-name="Grupo 1856" transform="translate(-1226 -3271)">
    <g id="Grupo_1855" data-name="Grupo 1855" transform="translate(1226 3271)">
      <g id="Grupo_1850" data-name="Grupo 1850">
        <g id="Grupo_1849" data-name="Grupo 1849" clip-path="url(#clip-path)">
          <path id="Line_9" data-name="Line 9" d="M-1.031,23.777-2,23.765-1.684-.027l.969.013Z" transform="translate(2 26.685)" fill="#314839"/>
          <path id="Line_10" data-name="Line 10" d="M23.685,7.128-.632-.978l.307-.92L23.992,6.208Z" transform="translate(0.964 51.894)" fill="#314839"/>
          <path id="Line_11" data-name="Line 11" d="M-.3,6.594l-.284-.927L24.153-1.912l.284.927Z" transform="translate(25.246 52.431)" fill="#314839"/>
        </g>
      </g>
      <path id="Line_12" data-name="Line 12" d="M-1.895,24.523-2,0l.969,0,.105,24.528Z" transform="translate(50.951 26.461)" fill="#314839"/>
      <g id="Grupo_1852" data-name="Grupo 1852">
        <g id="Grupo_1851" data-name="Grupo 1851" clip-path="url(#clip-path)">
          <path id="Line_13" data-name="Line 13" d="M-1.031,24.949H-2V0h.969Z" transform="translate(28.633 32.455)" fill="#314839"/>
          <path id="Line_14" data-name="Line 14" d="M-1.031,25.475H-2V0h.969Z" transform="translate(26.317 33.087)" fill="#314839"/>
          <path id="Line_15" data-name="Line 15" d="M-1.031,24.949H-2V0h.969Z" transform="translate(24.107 32.455)" fill="#314839"/>
          <path id="Line_16" data-name="Line 16" d="M23.485,5.426-.517-1l.251-.936,24,6.422Z" transform="translate(1.192 28.129)" fill="#314839"/>
        </g>
      </g>
      <path id="Line_17" data-name="Line 17" d="M-1.031,24.249H-2V0h.969Z" transform="translate(48.529 27.507)" fill="#314839"/>
      <path id="Line_18" data-name="Line 18" d="M-.315,4.282l-.3-.923L15.812-1.9l.3.923Z" transform="translate(29.581 33.898)" fill="#314839"/>
      <path id="Line_19" data-name="Line 19" d="M-.317,4.336l-.3-.922L15.806-1.9l.3.922Z" transform="translate(29.585 41.055)" fill="#314839"/>
      <path id="Line_20" data-name="Line 20" d="M-.306,3.9-.594,2.97,15.091-1.91l.288.926Z" transform="translate(30.2 48.324)" fill="#314839"/>
      <path id="Line_21" data-name="Line 21" d="M15.479,4.338-.627-.979l.3-.921L15.783,3.417Z" transform="translate(5.17 41.052)" fill="#314839"/>
      <path id="Line_22" data-name="Line 22" d="M15.725,4.069-.592-.985-.3-1.91,16.012,3.143Z" transform="translate(4.828 33.902)" fill="#314839"/>
      <path id="Line_23" data-name="Line 23" d="M15.812,4.282-.61-.981l.3-.923L16.108,3.359Z" transform="translate(5.053 48.425)" fill="#314839"/>
      <path id="Line_24" data-name="Line 24" d="M-1.031,23.325-2,23.312-1.694-.026l.969.013Z" transform="translate(4.116 27.843)" fill="#314839"/>
      <g id="Grupo_1854" data-name="Grupo 1854">
        <g id="Grupo_1853" data-name="Grupo 1853" clip-path="url(#clip-path)">
          <path id="Path_2084" data-name="Path 2084" d="M36.769,96.315l-.269-.931,19.184-5.926c-.178-.122-.385-.26-.621-.412a31.226,31.226,0,0,0-3.952-2.126,35.16,35.16,0,0,0-6.235-2.13,35.815,35.815,0,0,0-8.234-.986,34.27,34.27,0,0,0-8.012.957,41.012,41.012,0,0,0-6.509,2.148,36.459,36.459,0,0,0-5.939,3.125l-.553-.8c.024-.017.6-.416,1.647-1.015a42.481,42.481,0,0,1,4.466-2.206,41.986,41.986,0,0,1,6.663-2.2,35.243,35.243,0,0,1,8.239-.983,36.784,36.784,0,0,1,8.481,1.018,36.124,36.124,0,0,1,6.417,2.2,32.141,32.141,0,0,1,4.07,2.2,17.35,17.35,0,0,1,1.443,1.013l.544.443,3.55-.956.252.936Z" transform="translate(-11.841 -62.761)" fill="#314839"/>
          <path id="Caminho_2085" data-name="Caminho 2085" d="M61.971,101.014c0,.538-.589.974-1.316.974s-1.316-.436-1.316-.974.589-.974,1.316-.974,1.316.436,1.316.974" transform="translate(-44.959 -75.796)" fill="#314839"/>
          <path id="Caminho_2086" data-name="Caminho 2086" d="M98.393,92.853a.632.632,0,1,1-.632-.631.632.632,0,0,1,.632.631" transform="translate(-73.591 -69.873)" fill="#314839"/>
          <path id="Caminho_2087" data-name="Caminho 2087" d="M130.736,100.672c0,.349-.424.632-.948.632s-.947-.283-.947-.632.424-.631.947-.631.948.283.948.631" transform="translate(-97.618 -75.797)" fill="#314839"/>
          <path id="Caminho_2088" data-name="Caminho 2088" d="M80.149,114.139a.632.632,0,1,1-.632-.632.632.632,0,0,1,.632.632" transform="translate(-59.769 -86)" fill="#314839"/>
          <path id="Caminho_2089" data-name="Caminho 2089" d="M91.247,97.75a.316.316,0,1,1-.316-.316.316.316,0,0,1,.316.316" transform="translate(-68.655 -73.822)" fill="#314839"/>
          <path id="Caminho_2090" data-name="Caminho 2090" d="M112.584,111.024a.342.342,0,1,1-.342-.342.342.342,0,0,1,.342.342" transform="translate(-84.782 -83.859)" fill="#314839"/>
          <path id="Caminho_2091" data-name="Caminho 2091" d="M145.019,104.545a.487.487,0,1,1-.487-.487.487.487,0,0,1,.487.487" transform="translate(-109.137 -78.84)" fill="#314839"/>
          <path id="Line_25" data-name="Line 25" d="M-.684,35.814-1,0l.485,0L-.2,35.809Z" transform="translate(56.93 6.46)" fill="#314839"/>
          <path id="Line_26" data-name="Line 26" d="M-.023-.41-.044-.894,2.324-1l.022.484Z" transform="translate(56.364 4.894)" fill="#314839"/>
          <path id="Line_27" data-name="Line 27" d="M-.515,2H-1V0h.485Z" transform="translate(57.088 0.242)" fill="#314839"/>
          <path id="Line_28" data-name="Line 28" d="M2.684-.515H0V-1H2.684Z" transform="translate(56.33 1)" fill="#314839"/>
          <path id="Line_29" data-name="Line 29" d="M-.515,42.019-1,42.009-.158-.02l.485.01Z" transform="translate(58.93 0.257)" fill="#314839"/>
          <path id="Line_30" data-name="Line 30" d="M1.822-.374l-1.9-.14L-.038-1l1.9.14Z" transform="translate(56.386 40.248)" fill="#314839"/>
          <path id="Line_31" data-name="Line 31" d="M-.578,10.77-1-.02l.484-.019.421,10.79Z" transform="translate(55.982 44.959)" fill="#314839"/>
          <path id="Line_32" data-name="Line 32" d="M-.515,10.409H-1V0h.485Z" transform="translate(59.772 45.183)" fill="#314839"/>
          <path id="Line_33" data-name="Line 33" d="M.916,11.466-.987-.084l.478-.079,1.9,11.549Z" transform="translate(52.597 43.346)" fill="#314839"/>
          <path id="Line_34" data-name="Line 34" d="M-.51,12.556l-.479-.072L.906-.148l.479.072Z" transform="translate(61.87 43.094)" fill="#314839"/>
          <path id="Line_35" data-name="Line 35" d="M-.011-.275l-.01-.485L11.145-1l.01.485Z" transform="translate(51.865 43.739)" fill="#314839"/>
          <path id="Line_36" data-name="Line 36" d="M-.119.946-.231.475,5.858-.973,5.97-.5Z" transform="translate(0.976 25.955)" fill="#314839"/>
          <path id="Line_37" data-name="Line 37" d="M6.405.438-.143-.51l.069-.48,6.548.948Z" transform="translate(42.995 26.257)" fill="#314839"/>
        </g>
      </g>
    </g>
  </g>
</svg>
