<svg xmlns="http://www.w3.org/2000/svg" width="35" height="35" viewBox="0 0 35 35">
  <g id="Grupo_1860" data-name="Grupo 1860" transform="translate(0.29 0)">
    <rect id="Retângulo_1339" data-name="Retângulo 1339" width="35" height="35" transform="translate(-0.29 0)" fill="#a1b88a"/>
    <path id="solid_search-plus" data-name="solid search-plus" d="M11,6.95V8.109a.436.436,0,0,1-.434.434H8.543V10.57A.436.436,0,0,1,8.109,11H6.95a.436.436,0,0,1-.434-.434V8.543H4.489a.436.436,0,0,1-.434-.434V6.95a.436.436,0,0,1,.434-.434H6.516V4.489a.436.436,0,0,1,.434-.434H8.109a.436.436,0,0,1,.434.434V6.516H10.57A.436.436,0,0,1,11,6.95Zm7.276,10.306-1.024,1.024a.865.865,0,0,1-1.227,0l-3.613-3.609a.868.868,0,0,1-.253-.615v-.59a7.526,7.526,0,1,1,1.3-1.3h.59a.868.868,0,0,1,.615.253l3.609,3.609A.876.876,0,0,1,18.281,17.256ZM12.453,7.529a4.923,4.923,0,1,0-4.923,4.923A4.919,4.919,0,0,0,12.453,7.529Z" transform="translate(8.564 8.892)" fill="#fff"/>
  </g>
</svg>
