<svg xmlns="http://www.w3.org/2000/svg" xmlns:xlink="http://www.w3.org/1999/xlink" width="66.009" height="61.809" viewBox="0 0 66.009 61.809">
  <defs>
    <clipPath id="clip-path">
      <rect id="Retângulo_1337" data-name="Retângulo 1337" width="66.008" height="61.808" transform="translate(0 0)" fill="#b56b55"/>
    </clipPath>
  </defs>
  <g id="Grupo_1833" data-name="Grupo 1833" transform="translate(0 -0.003)">
    <g id="Grupo_1832" data-name="Grupo 1832" transform="translate(0 0.003)" clip-path="url(#clip-path)">
      <path id="Caminho_2063" data-name="Caminho 2063" d="M65.98,45.636s0-.006,0-.01L61.435,25.6V9.488A9.5,9.5,0,0,0,51.95,0H14.058A9.5,9.5,0,0,0,4.573,9.488V25.6L.029,45.626s0,.007,0,.01A1.189,1.189,0,0,0,0,45.887V58.58a3.235,3.235,0,0,0,3.232,3.232h5.04A3.235,3.235,0,0,0,11.5,58.58V56.352a.14.14,0,0,1,.14-.14H54.365a.14.14,0,0,1,.14.14V58.58a3.235,3.235,0,0,0,3.232,3.232h5.04a3.235,3.235,0,0,0,3.232-3.232V45.887a1.18,1.18,0,0,0-.024-.233l0-.018M2.357,47.065h61.3V49.78H2.357ZM6.93,9.488A7.136,7.136,0,0,1,14.058,2.36H51.95a7.136,7.136,0,0,1,7.128,7.128V24.549H56.992V19.558A4.16,4.16,0,0,0,52.837,15.4H39.258A4.16,4.16,0,0,0,35.1,19.558v4.991h-4.2V19.558A4.16,4.16,0,0,0,26.751,15.4H13.172a4.16,4.16,0,0,0-4.155,4.155v4.991H6.93ZM37.459,24.2V19.558a1.8,1.8,0,0,1,1.8-1.8H52.837a1.8,1.8,0,0,1,1.8,1.8V24.2Zm-26.086,0V19.558a1.8,1.8,0,0,1,1.8-1.8H26.751a1.8,1.8,0,0,1,1.8,1.8V24.2ZM6.692,26.906H59.316l4.039,17.8H2.654ZM62.777,59.455h-5.04a.876.876,0,0,1-.875-.875V56.352a2.5,2.5,0,0,0-2.5-2.5H11.643a2.5,2.5,0,0,0-2.5,2.5V58.58a.876.876,0,0,1-.875.875H3.232a.876.876,0,0,1-.875-.875V52.137h61.3V58.58a.876.876,0,0,1-.875.875" transform="translate(0 -0.003)" fill="#b56b55"/>
    </g>
  </g>
</svg>
