<svg xmlns="http://www.w3.org/2000/svg" xmlns:xlink="http://www.w3.org/1999/xlink" width="62.145" height="57" viewBox="0 0 62.145 57">
  <defs>
    <clipPath id="clip-path">
      <rect id="Retângulo_1351" data-name="Retângulo 1351" width="62.145" height="57" fill="#b56b55"/>
    </clipPath>
  </defs>
  <g id="Grupo_1864" data-name="Grupo 1864" transform="translate(-344 -2121)">
    <g id="Grupo_1867" data-name="Grupo 1867" transform="translate(344 2121)">
      <g id="Grupo_1866" data-name="Grupo 1866" clip-path="url(#clip-path)">
        <path id="Caminho_2095" data-name="Caminho 2095" d="M0,50.708c1.373.018,2.746.039,4.119.052.847.008,1.695,0,2.748,0-.293-.244-.446-.374-.6-.5A11.409,11.409,0,0,1,2.787,37.432a1.444,1.444,0,0,1,1.448-1.126H7.351c.114-.457.231-1.05.408-1.625a11.369,11.369,0,0,1,4.911-6.4,1.246,1.246,0,0,1,1.567,0c.755.569,1.507,1.142,2.337,1.772V29.4q0-5.158,0-10.316c0-1.113.241-1.355,1.349-1.524,3.875-.589,7.747-1.2,11.621-1.788.288-.044.545-.082.481-.45s.248-.837-.406-1.037A4.956,4.956,0,0,1,26,10.343a8.142,8.142,0,0,1,.91-5.105A18.284,18.284,0,0,1,30.16.507c.566-.615,1.17-.684,1.681-.135a15.668,15.668,0,0,1,4.272,7.551A5.246,5.246,0,0,1,32.474,14.3c-.625.214-.286.638-.347,1.065,1.408-.21,2.759-.407,4.108-.614q3.955-.605,7.908-1.218c.955-.147,1.416.235,1.421,1.212.011,2.1,0,4.207,0,6.311v.71H46.3c2.832,0,5.664-.019,8.5.005a7.216,7.216,0,0,1,7.327,7.53,7.057,7.057,0,0,1-2.893,5.5c-.175.135-.358.26-.586.424a7.237,7.237,0,0,1,3.426,5.319A7.345,7.345,0,0,1,60,46.613c.407,0,.7-.011.984,0A1.058,1.058,0,0,1,62.138,47.8c.011,1.254.007,2.508,0,3.762,0,.887-.362,1.248-1.247,1.273-.241.007-.483,0-.82,0,0,.893,0,1.753,0,2.612,0,1.24-.3,1.536-1.541,1.537-1.072,0-2.145-.029-3.216.01a1.467,1.467,0,0,1-1.558-.978c-.418-.94-.894-1.856-1.383-2.762a.823.823,0,0,0-.567-.4c-1.961-.029-3.924-.017-5.886-.014a2.424,2.424,0,0,0-.357.063c0,.912.005,1.819,0,2.725-.007,1-.353,1.355-1.352,1.355q-19.357,0-38.714.007a1.354,1.354,0,0,1-1.386-.852c-.449-.972-.966-1.911-1.423-2.879a.635.635,0,0,0-.694-.43c-.664.038-1.33.041-1.995.058V50.708m31.039,2.131c-.27,0-.509,0-.748,0-.935-.021-1.284-.367-1.287-1.29Q29,49.7,29,47.847c0-.846.371-1.209,1.225-1.234.266-.008.532,0,.9,0a7.309,7.309,0,0,1,4.182-12.386c-.143-.173-.24-.3-.342-.413a7.219,7.219,0,0,1,1.045-10.575,7.714,7.714,0,0,1,5.192-1.474c.741.029,1.483,0,2.234,0V15.734L18.65,19.549v.791q0,6.1,0,12.195a2.971,2.971,0,0,0,.034.836c.308,1.017.657,2.022.956,2.927H22.65a1.486,1.486,0,0,1,1.5,1.152,11.413,11.413,0,0,1-3.364,12.7c-.193.163-.389.322-.584.484l.036.137h6.656V52.84c-.684,0-1.328-.012-1.971.008-.182.006-.454.052-.525.172-.339.582-.622,1.2-.949,1.847h7.592ZM53.9,36.319a5.246,5.246,0,0,1-4.75,8.251c-3.146-.159-6.307-.028-9.461-.034a4.626,4.626,0,0,1-1.082-.09,3.1,3.1,0,0,1,.721-6.106c2.3-.023,4.61-.007,6.915,0a1.924,1.924,0,0,1,.328.055V40.4H45.89c-2.123,0-4.246-.005-6.369,0-.734,0-1.172.4-1.185,1.016a1.007,1.007,0,0,0,1.14,1.046c3.437.006,6.875.017,10.312-.007a3.091,3.091,0,0,0,.08-6.178c-4.65-.032-9.3-.06-13.951.013a5.157,5.157,0,0,0,.038,10.3c.888.036,1.779.019,2.668.019,5.5,0,11,.031,16.5-.027a5.1,5.1,0,0,0,4.946-5.249A5.262,5.262,0,0,0,53.9,36.319m-5.256-8.33h-.727c-2.124,0-4.247,0-6.371,0a1.031,1.031,0,1,0-.075,2.056c3.5.013,7,.049,10.5-.02a3.086,3.086,0,0,0-.08-6.166c-3.923-.032-7.848-.057-11.77.015a5.152,5.152,0,0,0,.048,10.294q7.462.089,14.926,0a5.1,5.1,0,0,0,4.859-4.24,5.177,5.177,0,0,0-3.236-5.748c-.186-.071-.383-.116-.664-.2a5.261,5.261,0,0,1-4.78,8.163c-3.172-.111-6.35-.015-9.525-.029a4.452,4.452,0,0,1-1.312-.178,3.078,3.078,0,0,1-2.074-3.432,3.043,3.043,0,0,1,2.94-2.578c2.164-.034,4.328-.013,6.492-.015h.853ZM13.911,50.735a9.312,9.312,0,0,0,8.538-11.8.68.68,0,0,0-.779-.609A9.35,9.35,0,0,0,12.679,49.8c.238.978.238.978,1.232.931M12.167,41.5a9.325,9.325,0,0,0-6.916-3.178.633.633,0,0,0-.755.555,9.215,9.215,0,0,0,2.151,8.9,8.733,8.733,0,0,0,4.026,2.538A11.408,11.408,0,0,1,12.167,41.5m47.877,7.222H31.12v2.014H60.044ZM13.6,39.709a12.1,12.1,0,0,1,3.661-2.525.618.618,0,0,0,.218-.524,9.084,9.084,0,0,0-3.729-6.208.564.564,0,0,0-.521-.03A9.109,9.109,0,0,0,9.4,36.9L13.6,39.709M31.074,2.589c-.346.452-.641.809-.9,1.189a10.524,10.524,0,0,0-2.2,5.3,2.921,2.921,0,0,0,2.086,3.074V10.424h2.074v1.771a3.031,3.031,0,0,0,2.03-3.12c-.189-2.525-1.545-4.493-3.089-6.486m-8.96,50.3H4.816c.32.644.587,1.229.9,1.786a.647.647,0,0,0,.489.232q7.252.018,14.5,0a.7.7,0,0,0,.518-.279c.312-.537.568-1.107.881-1.736M43.451,54.88V52.843c-1.447,0-2.854,0-4.262.009a.453.453,0,0,0-.329.205c-.307.578-.588,1.171-.911,1.823Zm11.066-2.007c.337.672.615,1.249.919,1.814a.456.456,0,0,0,.319.216c.739.019,1.478.01,2.214.01V52.873Zm-21.336.011V54.91c.752,0,1.492.007,2.231-.008a.391.391,0,0,0,.277-.183c.308-.58.6-1.17.93-1.834Z" transform="translate(0 0)" fill="#b56b55"/>
        <rect id="Retângulo_1349" data-name="Retângulo 1349" width="1.998" height="8.195" transform="translate(20.765 21.812)" fill="#b56b55"/>
        <rect id="Retângulo_1350" data-name="Retângulo 1350" width="1.979" height="1.989" transform="translate(20.776 32.173)" fill="#b56b55"/>
      </g>
    </g>
  </g>
</svg>
