<svg id="Grupo_1875" data-name="Grupo 1875" xmlns="http://www.w3.org/2000/svg" xmlns:xlink="http://www.w3.org/1999/xlink" width="59.064" height="59.18" viewBox="0 0 59.064 59.18">
  <defs>
    <clipPath id="clip-path">
      <rect id="Retângulo_1357" data-name="Retângulo 1357" width="59.064" height="59.18" fill="#b56b55"/>
    </clipPath>
  </defs>
  <g id="Grupo_1874" data-name="Grupo 1874" clip-path="url(#clip-path)">
    <path id="Caminho_2110" data-name="Caminho 2110" d="M33,253.735c2-.851,3.935-1.687,5.881-2.491a5.343,5.343,0,0,1,1.523-.432,3.608,3.608,0,0,1,1.734,6.9c-2.023.837-4.083,1.583-6.13,2.365q-4.56,1.742-9.124,3.478a17,17,0,0,1-13-.22q-3.176-1.319-6.349-2.645c-.2-.085-.414-.154-.627-.233-.146,1.117-.384,1.32-1.519,1.32H.007v-1.952H4.845V248H0v-1.984H.637q2.43,0,4.86,0c.906,0,1.079.118,1.473,1.082,1.421,0,2.9-.074,4.368.016a21.13,21.13,0,0,1,7.957,2.153,6.741,6.741,0,0,0,3.08.7c2.173-.026,4.351.072,6.52-.031a3.665,3.665,0,0,1,4.1,3.8M17.724,254.88h.714c3.61,0,7.221,0,10.831,0a1.57,1.57,0,0,0,1.542-.807,1.47,1.47,0,0,0-1.421-2.148c-2.482-.013-4.966.059-7.445-.035a8.185,8.185,0,0,1-3.024-.667,22.706,22.706,0,0,0-8.137-2.194c-1.3-.076-2.6-.013-3.921-.013,0,3-.008,5.956.019,8.91a.777.777,0,0,0,.437.521c2.506,1.066,5.016,2.122,7.539,3.148a14.71,14.71,0,0,0,10.984.231c5.087-1.887,10.145-3.852,15.213-5.791a1.687,1.687,0,0,0,1.123-2.293,1.65,1.65,0,0,0-2.379-.758C37.4,254,35,255.012,32.618,256.045a8.663,8.663,0,0,1-3.56.815c-3.548-.029-7.1-.01-10.646-.01h-.688Z" transform="translate(-0.001 -205.555)" fill="#b56b55"/>
    <path id="Caminho_2111" data-name="Caminho 2111" d="M211.995,20.417l-1.664-1.04,2.3-3.748a14.364,14.364,0,0,1,1.008-1.616,6.634,6.634,0,0,0,1.45-5.32,1.64,1.64,0,0,0-.247-.722c-.767-1.064-1.591-2.089-2.332-3.171a1.961,1.961,0,0,1-.332-1.184A3.981,3.981,0,0,1,217.655.3c.964.4,1.888.893,2.812,1.377a1,1,0,0,0,1.073.01c.823-.456,1.672-.87,2.525-1.269a4.011,4.011,0,0,1,5.748,2.941,1.764,1.764,0,0,1-.349,1.55c-.715.9-1.364,1.848-2.079,2.745a2.485,2.485,0,0,0-.49,1.392,6.99,6.99,0,0,0,1.358,4.808c1.875,2.836,3.642,5.748,5.356,8.685A8.608,8.608,0,0,1,228.457,35.2a7.009,7.009,0,0,1-1.812.307c-3.486.029-6.973.014-10.51.014V33.567h.632c3.118,0,6.235.014,9.353,0a6.676,6.676,0,0,0,6.7-6.985,6.282,6.282,0,0,0-.919-3.09q-3.146-5.138-6.322-10.258a.857.857,0,0,0-.623-.33c-2.625-.022-5.251,0-7.876-.025a.74.74,0,0,0-.714.439q-1.971,3.227-3.958,6.443c-.127.207-.257.413-.41.66m9.024-13.441c1.332,0,2.664.015,3.995-.014a.965.965,0,0,0,.655-.312q1.034-1.3,1.987-2.656a.909.909,0,0,0,.092-.715,2.026,2.026,0,0,0-2.841-1.084c-1.035.489-2.066.993-3.07,1.543a1.586,1.586,0,0,1-1.672-.012c-1.007-.545-2.036-1.052-3.073-1.54a2.056,2.056,0,0,0-2.8.991.773.773,0,0,0,.094.9c.659.836,1.27,1.711,1.938,2.539a1.042,1.042,0,0,0,.7.347c1.331.033,2.663.016,3.995.016m3.9,2.013h-7.8v1.895h7.8Z" transform="translate(-175.739 0)" fill="#b56b55"/>
    <path id="Caminho_2112" data-name="Caminho 2112" d="M79.637,149.937H77.645v-.629q0-7.847,0-15.695c0-1.082.3-1.373,1.4-1.373h22.834c1.062,0,1.375.3,1.375,1.333q0,10.371,0,20.742v.532h-1.963V134.24H79.637Z" transform="translate(-64.875 -110.492)" fill="#b56b55"/>
    <path id="Caminho_2113" data-name="Caminho 2113" d="M113.753,171.981v-1.916h1.941v-.721c0-1.989,0-3.977,0-5.966,0-.85.35-1.2,1.185-1.21q1.753-.011,3.506,0c.874,0,1.211.351,1.216,1.243,0,.877,0,1.753,0,2.695.929,0,1.8,0,2.679,0,.923,0,1.255.337,1.259,1.262,0,.86,0,1.72,0,2.648h1.929v1.966Zm5.837-7.8H117.7v5.832h1.895Zm2.026,5.808h1.915v-1.872h-1.915Z" transform="translate(-95.045 -135.493)" fill="#b56b55"/>
    <path id="Caminho_2114" data-name="Caminho 2114" d="M121.471,21.375A21.12,21.12,0,0,1,132.048,9.887l-3.007-1.021.6-1.824c.2.049.352.078.5.127,1.632.54,3.264,1.079,4.893,1.629.822.278,1.045.7.782,1.5-.586,1.787-1.186,3.57-1.8,5.416l-1.861-.617,1.177-3.588a18.35,18.35,0,0,0-6.074,4.278,18.841,18.841,0,0,0-3.931,6.27l-1.854-.681" transform="translate(-101.493 -5.884)" fill="#b56b55"/>
    <path id="Caminho_2115" data-name="Caminho 2115" d="M261.269,120.231h-1.88c-.022-.026-.073-.06-.069-.085a1.273,1.273,0,0,0-.8-1.426,2.534,2.534,0,0,1-1.186-2.37h1.872c.283.8.528.99,1.18.957.445-.022.814-.243.826-.663a1.228,1.228,0,0,0-.43-.906,11.136,11.136,0,0,0-1.684-.879,2.833,2.833,0,0,1-.111-5.193.818.818,0,0,0,.3-.5,3.059,3.059,0,0,0,.012-.687h1.88c.023.028.074.062.07.087a1.268,1.268,0,0,0,.8,1.424,2.587,2.587,0,0,1,1.192,2.37h-1.882c-.282-.8-.524-.989-1.181-.958-.446.021-.814.242-.826.662a1.22,1.22,0,0,0,.431.9,13.353,13.353,0,0,0,1.74.9,2.833,2.833,0,0,1,.057,5.169.817.817,0,0,0-.3.5,3.057,3.057,0,0,0-.012.688" transform="translate(-215.014 -90.634)" fill="#b56b55"/>
    <rect id="Retângulo_1354" data-name="Retângulo 1354" width="11.74" height="1.895" transform="translate(21.662 39.508)" fill="#b56b55"/>
    <path id="Caminho_2116" data-name="Caminho 2116" d="M244.573,229.793l-.381-1.909a19.1,19.1,0,0,0,8.625-4.316l1.3,1.475a20.592,20.592,0,0,1-9.542,4.749" transform="translate(-204.031 -186.8)" fill="#b56b55"/>
    <path id="Caminho_2117" data-name="Caminho 2117" d="M115.361,106.779l1.887.489-.362,1.861-1.945-.284.421-2.066" transform="translate(-96.036 -89.218)" fill="#b56b55"/>
    <rect id="Retângulo_1355" data-name="Retângulo 1355" width="1.882" height="1.915" transform="translate(50.233 22.766)" fill="#b56b55"/>
    <rect id="Retângulo_1356" data-name="Retângulo 1356" width="1.872" height="1.915" transform="translate(17.741 39.518)" fill="#b56b55"/>
  </g>
</svg>
