<svg xmlns="http://www.w3.org/2000/svg" xmlns:xlink="http://www.w3.org/1999/xlink" width="610" height="636" viewBox="0 0 610 636">
  <defs>
    <filter id="Retângulo_1281" x="0" y="0" width="610" height="636" filterUnits="userSpaceOnUse">
      <feOffset dy="15" input="SourceAlpha"/>
      <feGaussianBlur stdDeviation="13" result="blur"/>
      <feFlood flood-opacity="0.345"/>
      <feComposite operator="in" in2="blur"/>
      <feComposite in="SourceGraphic"/>
    </filter>
  </defs>
  <g id="Grupo_1803" data-name="Grupo 1803" transform="translate(-967 -230)">
    <g transform="matrix(1, 0, 0, 1, 967, 230)" filter="url(#Retângulo_1281)">
      <rect id="Retângulo_1281-2" data-name="Retângulo 1281" width="532" height="558" transform="translate(39 24)" fill="#485a4b"/>
    </g>
    <text id="Cadastre-se_para_falar_com_um_especialista._" data-name="Cadastre-se para falar
com um especialista. 
" transform="translate(1271 289)" fill="#fff" font-size="22" font-family="SegoeUI-Bold, Segoe UI" font-weight="700" letter-spacing="-0.008em"><tspan x="-110.864" y="0">Cadastre-se para falar</tspan><tspan x="-108.315" y="30">com um especialista. </tspan><tspan font-family="Gotham-Bold, Gotham"><tspan x="0" y="60"></tspan></tspan></text>
    <g id="Retângulo_1274" data-name="Retângulo 1274" transform="translate(1031 334)" fill="#fff" stroke="#eee" stroke-width="1">
      <rect width="486" height="61" rx="4" stroke="none"/>
      <rect x="0.5" y="0.5" width="485" height="60" rx="3.5" fill="none"/>
    </g>
    <g id="Retângulo_1279" data-name="Retângulo 1279" transform="translate(1031 546)" fill="#fff" stroke="#eee" stroke-width="1">
      <rect width="486" height="109" rx="4" stroke="none"/>
      <rect x="0.5" y="0.5" width="485" height="108" rx="3.5" fill="none"/>
    </g>
    <g id="Retângulo_1275" data-name="Retângulo 1275" transform="translate(1031 405)" fill="#fff" stroke="#eee" stroke-width="1">
      <rect width="239" height="61" rx="4" stroke="none"/>
      <rect x="0.5" y="0.5" width="238" height="60" rx="3.5" fill="none"/>
    </g>
    <g id="Retângulo_1280" data-name="Retângulo 1280" transform="translate(1031 671)" fill="#fff" stroke="#707070" stroke-width="1">
      <rect width="212" height="58" stroke="none"/>
      <rect x="0.5" y="0.5" width="211" height="57" fill="none"/>
    </g>
    <g id="Retângulo_1277" data-name="Retângulo 1277" transform="translate(1031 474)" fill="#fff" stroke="#eee" stroke-width="1">
      <rect width="239" height="61" rx="4" stroke="none"/>
      <rect x="0.5" y="0.5" width="238" height="60" rx="3.5" fill="none"/>
    </g>
    <g id="Retângulo_1276" data-name="Retângulo 1276" transform="translate(1278 405)" fill="#fff" stroke="#eee" stroke-width="1">
      <rect width="239" height="61" rx="4" stroke="none"/>
      <rect x="0.5" y="0.5" width="238" height="60" rx="3.5" fill="none"/>
    </g>
    <g id="Retângulo_1278" data-name="Retângulo 1278" transform="translate(1278 474)" fill="#fff" stroke="#eee" stroke-width="1">
      <rect width="239" height="61" rx="4" stroke="none"/>
      <rect x="0.5" y="0.5" width="238" height="60" rx="3.5" fill="none"/>
    </g>
    <text id="NOME" transform="translate(1069 371)" fill="#3b3b3b" font-size="14" font-family="SegoeUI, Segoe UI"><tspan x="-20.34" y="0">NOME</tspan></text>
    <text id="E-MAIL" transform="translate(1073 440)" fill="#3b3b3b" font-size="14" font-family="SegoeUI, Segoe UI"><tspan x="-22.299" y="0">E-MAIL</tspan></text>
    <text id="ESTADO" transform="translate(1077 511)" fill="#3b3b3b" font-size="14" font-family="SegoeUI, Segoe UI"><tspan x="-25.149" y="0">ESTADO</tspan></text>
    <text id="MENSAGEM" transform="translate(1089 572)" fill="#3b3b3b" font-size="14" font-family="SegoeUI, Segoe UI"><tspan x="-37.789" y="0">MENSAGEM</tspan></text>
    <text id="TELEFONE" transform="translate(1327 440)" fill="#3b3b3b" font-size="14" font-family="SegoeUI, Segoe UI"><tspan x="-31.517" y="0">TELEFONE</tspan></text>
    <text id="CIDADE" transform="translate(1316 511)" fill="#3b3b3b" font-size="14" font-family="SegoeUI, Segoe UI"><tspan x="-23.898" y="0">CIDADE</tspan></text>
    <path id="Polígono_5" data-name="Polígono 5" d="M4.5,0,9,8H0Z" transform="translate(1252 510) rotate(180)" fill="#212121"/>
    <path id="Polígono_6" data-name="Polígono 6" d="M4.5,0,9,8H0Z" transform="translate(1504 510) rotate(180)" fill="#212121"/>
    <g id="Grupo_998" data-name="Grupo 998" transform="translate(815 164)">
      <rect id="Retângulo_65" data-name="Retângulo 65" width="265" height="58" transform="translate(437 507)" fill="#af5f48"/>
      <text id="QUERO_MAIS_INFORMAÇÕES" data-name="QUERO MAIS INFORMAÇÕES" transform="translate(449 530)" fill="#fff" font-size="13" font-family="SegoeUI-Light, Segoe UI" font-weight="300"><tspan x="0" y="14">QUERO MAIS INFORMAÇÕES</tspan></text>
      <g id="Grupo_999" data-name="Grupo 999" transform="translate(653.5 531.4)">
        <g id="Grupo_750" data-name="Grupo 750" transform="translate(24.1)">
          <path id="Caminho_628" data-name="Caminho 628" d="M170.6,512.2a.367.367,0,0,1-.1.3L164,519a.5.5,0,0,1-.6,0l-.7-.7a.5.5,0,0,1,0-.6l5.4-5.4-5.4-5.4a.5.5,0,0,1,0-.6l.7-.7a.5.5,0,0,1,.6,0l6.5,6.5C170.6,512,170.6,512.1,170.6,512.2Z" transform="translate(-162.6 -505.5)" fill="#fff"/>
        </g>
        <line id="Linha_1" data-name="Linha 1" x1="27" transform="translate(0 7.5)" fill="none" stroke="#fff" stroke-width="1"/>
      </g>
    </g>
    <text id="recaptcha" transform="translate(1082 709)" fill="#e9e9e9" font-size="24" font-family="SegoeUI-Light, Segoe UI" font-weight="300" letter-spacing="-0.042em"><tspan x="0" y="0">recaptcha</tspan></text>
  </g>
</svg>
