<svg xmlns="http://www.w3.org/2000/svg" xmlns:xlink="http://www.w3.org/1999/xlink" width="49.682" height="49.42" viewBox="0 0 49.682 49.42">
  <defs>
    <clipPath id="clip-path">
      <rect id="Retângulo_1341" data-name="Retângulo 1341" width="49.681" height="49.42" fill="#314839"/>
    </clipPath>
  </defs>
  <g id="Grupo_1847" data-name="Grupo 1847" transform="translate(-1107 -3068)">
    <g id="Grupo_1846" data-name="Grupo 1846" transform="translate(1107 3068)">
      <g id="Grupo_1845" data-name="Grupo 1845" clip-path="url(#clip-path)">
        <path id="Caminho_2078" data-name="Caminho 2078" d="M49.705,345.067a5.824,5.824,0,0,1-3.639-1.114c-.334-.228-.655-.474-.984-.708a4.119,4.119,0,0,0-4.973.014,8.427,8.427,0,0,1-2.95,1.624,6.386,6.386,0,0,1-5.357-.966,10.285,10.285,0,0,0-1.833-1.166,3.97,3.97,0,0,0-4.042.492,8.534,8.534,0,0,1-2.993,1.646,6.387,6.387,0,0,1-5.314-.957,10.641,10.641,0,0,0-1.876-1.187,3.959,3.959,0,0,0-4.039.51,8.463,8.463,0,0,1-2.949,1.627,6.335,6.335,0,0,1-5.315-.939c-.252-.176-.506-.349-.749-.537a4.188,4.188,0,0,0-2.664-.973v-2.2a6.075,6.075,0,0,1,3.665,1.154,10.93,10.93,0,0,0,2.063,1.239,4.017,4.017,0,0,0,3.819-.553,12.3,12.3,0,0,1,2.763-1.559,6.036,6.036,0,0,1,5.616.914,9.343,9.343,0,0,0,1.84,1.152,3.983,3.983,0,0,0,4-.531,8.414,8.414,0,0,1,3-1.642,6.336,6.336,0,0,1,5.309.982c.317.224.63.454.946.679a4.114,4.114,0,0,0,4.932-.005,8.931,8.931,0,0,1,2.806-1.6,6.421,6.421,0,0,1,5.544.927,16.973,16.973,0,0,0,2.2,1.291,3.739,3.739,0,0,0,1.184.149Z" transform="translate(-0.024 -302.355)" fill="#314839"/>
        <path id="Caminho_2079" data-name="Caminho 2079" d="M49.681,405.245a7.105,7.105,0,0,1-4.509-1.775,4.111,4.111,0,0,0-3.233-.856,4.915,4.915,0,0,0-1.939.829,13.063,13.063,0,0,1-2.69,1.492,6.04,6.04,0,0,1-5.574-.912,9.633,9.633,0,0,0-1.885-1.171,3.979,3.979,0,0,0-3.992.557,8.506,8.506,0,0,1-2.814,1.579,6.376,6.376,0,0,1-5.5-.952,9.815,9.815,0,0,0-1.881-1.178,3.977,3.977,0,0,0-3.994.539A8.56,8.56,0,0,1,8.817,405a6.433,6.433,0,0,1-5.455-.943,20.043,20.043,0,0,0-2.244-1.312A4.218,4.218,0,0,0,0,402.523v-2.139a4.934,4.934,0,0,1,2.695.582,19.521,19.521,0,0,1,1.828,1.185,4.143,4.143,0,0,0,5.091-.008A7.79,7.79,0,0,1,13,400.453a6.451,6.451,0,0,1,4.925,1.108,9.518,9.518,0,0,0,1.84,1.151,3.95,3.95,0,0,0,3.993-.523,8.466,8.466,0,0,1,2.95-1.626,6.4,6.4,0,0,1,5.359.958,10.476,10.476,0,0,0,1.879,1.183,3.947,3.947,0,0,0,4-.5,8.628,8.628,0,0,1,2.946-1.633,6.365,6.365,0,0,1,5.44,1,5.923,5.923,0,0,0,2.628,1.383c.24.032.482.043.723.064Z" transform="translate(0 -355.834)" fill="#314839"/>
        <path id="Caminho_2080" data-name="Caminho 2080" d="M14.025,71.059A11.229,11.229,0,0,1,15.84,65q4.118-6.462,8.25-12.915c.559-.873,1.483-.949,2.006-.132,2.878,4.492,5.849,8.929,8.577,13.51a11.068,11.068,0,1,1-20.5,7.183c-.071-.528-.1-1.061-.148-1.591M25.133,54.615c-.063.079-.106.126-.14.178q-3.678,5.762-7.351,11.528A8.732,8.732,0,0,0,16.4,72.546,8.869,8.869,0,1,0,32.541,66.17c-2.364-3.744-4.763-7.467-7.147-11.2-.076-.118-.165-.228-.26-.357" transform="translate(-12.465 -45.673)" fill="#314839"/>
        <path id="Caminho_2081" data-name="Caminho 2081" d="M281.59,16.529a9.424,9.424,0,1,1-17.325-5.091q3.421-5.381,6.864-10.747a1.118,1.118,0,0,1,2.032-.074c2.414,3.77,4.827,7.541,7.207,11.332a8.674,8.674,0,0,1,1.221,4.58M272.2,3.228a.8.8,0,0,0-.13.118C270,6.59,267.882,9.8,265.884,13.089a7.088,7.088,0,0,0,1.08,8.476,7.21,7.21,0,0,0,11.207-8.983C276.4,9.779,274.607,7,272.823,4.2c-.206-.323-.415-.644-.628-.975" transform="translate(-233.531 0)" fill="#314839"/>
        <path id="Caminho_2082" data-name="Caminho 2082" d="M124.9,210.6a6.173,6.173,0,0,1-3.7,5.725c-.832.381-1.456.209-1.744-.425s-.01-1.22.813-1.593a3.692,3.692,0,0,0,2.323-3.143,7.5,7.5,0,0,0-.2-1.811,1.1,1.1,0,1,1,2.159-.46c.164.62.255,1.259.342,1.707" transform="translate(-106.074 -184.874)" fill="#314839"/>
        <path id="Caminho_2083" data-name="Caminho 2083" d="M346.793,115.111c-.239,2.948-1.5,4.882-3.979,5.966a1.125,1.125,0,0,1-1.644-.491c-.27-.624-.016-1.2.755-1.536a4.161,4.161,0,0,0,2.4-2.571,4.441,4.441,0,0,0-.018-2.622,1.091,1.091,0,0,1,1.189-1.474,1,1,0,0,1,.9.772c.181.732.3,1.478.4,1.957" transform="translate(-303.139 -99.876)" fill="#314839"/>
      </g>
    </g>
  </g>
</svg>
